<?xml version="1.0" encoding="UTF-8"?>
<svg height="16px" viewBox="0 0 16 16" width="16px" xmlns="http://www.w3.org/2000/svg">
    <path d="m 3 0 c -1.660156 0 -3 1.339844 -3 3 v 3 h 16 v -3 c 0 -1.660156 -1.339844 -3 -3 -3 h -2 c -1.660156 0 -3 1.339844 -3 3 c 0 -1.660156 -1.339844 -3 -3 -3 z m 0 0"/>
    <path d="m 15 11 v 1.207031 c 0 1.546875 -1.253906 2.792969 -2.8125 2.792969 h -1.1875 c -1.558594 0 -3 -1.246094 -3 -2.792969 c 0 1.546875 -1.441406 2.792969 -3 2.792969 h -1.1875 c -1.558594 0 -2.8125 -1.246094 -2.8125 -2.792969 v -0.9375" fill="none" stroke="#000000" stroke-linecap="round" stroke-linejoin="round" stroke-width="2"/>
    <path d="m 0 6 h 8 v 5 h -8 z m 0 0" fill-opacity="0.673239"/>
    <path d="m 8 6 h 8 v 5 h -8 z m 0 0" fill-opacity="0.496807"/>
</svg>
