<?xml version="1.0" encoding="UTF-8"?>
<svg height="128px" viewBox="0 0 128 128" width="128px" xmlns="http://www.w3.org/2000/svg" xmlns:xlink="http://www.w3.org/1999/xlink">
    <linearGradient id="a" gradientUnits="userSpaceOnUse">
        <stop offset="0" stop-color="#b6b5b2"/>
        <stop offset="0.121471" stop-color="#ebeae6"/>
        <stop offset="0.235856" stop-color="#deddda"/>
        <stop offset="0.758387" stop-color="#deddda"/>
        <stop offset="0.88837" stop-color="#f1f0ec"/>
        <stop offset="1" stop-color="#b7b6b3"/>
    </linearGradient>
    <linearGradient id="b" x1="12" x2="46" xlink:href="#a" y1="122" y2="122"/>
    <clipPath id="c">
        <path d="m 12 12 h 34 v 108 h -34 z m 0 0"/>
    </clipPath>
    <clipPath id="d">
        <path d="m 21.539062 12 h 14.921876 c 5.265624 0 9.539062 4.273438 9.539062 9.539062 v 88.921876 c 0 5.265624 -4.273438 9.539062 -9.539062 9.539062 h -14.921876 c -5.265624 0 -9.539062 -4.273438 -9.539062 -9.539062 v -88.921876 c 0 -5.265624 4.273438 -9.539062 9.539062 -9.539062 z m 0 0"/>
    </clipPath>
    <clipPath id="e">
        <path d="m 12 12 h 34 v 16 h -34 z m 0 0"/>
    </clipPath>
    <clipPath id="f">
        <path d="m 21.539062 12 h 14.921876 c 5.265624 0 9.539062 4.273438 9.539062 9.539062 v 88.921876 c 0 5.265624 -4.273438 9.539062 -9.539062 9.539062 h -14.921876 c -5.265624 0 -9.539062 -4.273438 -9.539062 -9.539062 v -88.921876 c 0 -5.265624 4.273438 -9.539062 9.539062 -9.539062 z m 0 0"/>
    </clipPath>
    <clipPath id="g">
        <path d="m 12 28 h 34 v 16 h -34 z m 0 0"/>
    </clipPath>
    <clipPath id="h">
        <path d="m 21.539062 12 h 14.921876 c 5.265624 0 9.539062 4.273438 9.539062 9.539062 v 88.921876 c 0 5.265624 -4.273438 9.539062 -9.539062 9.539062 h -14.921876 c -5.265624 0 -9.539062 -4.273438 -9.539062 -9.539062 v -88.921876 c 0 -5.265624 4.273438 -9.539062 9.539062 -9.539062 z m 0 0"/>
    </clipPath>
    <clipPath id="i">
        <path d="m 12 44 h 34 v 16 h -34 z m 0 0"/>
    </clipPath>
    <clipPath id="j">
        <path d="m 21.539062 12 h 14.921876 c 5.265624 0 9.539062 4.273438 9.539062 9.539062 v 88.921876 c 0 5.265624 -4.273438 9.539062 -9.539062 9.539062 h -14.921876 c -5.265624 0 -9.539062 -4.273438 -9.539062 -9.539062 v -88.921876 c 0 -5.265624 4.273438 -9.539062 9.539062 -9.539062 z m 0 0"/>
    </clipPath>
    <clipPath id="k">
        <path d="m 12 60 h 34 v 16 h -34 z m 0 0"/>
    </clipPath>
    <clipPath id="l">
        <path d="m 21.539062 12 h 14.921876 c 5.265624 0 9.539062 4.273438 9.539062 9.539062 v 88.921876 c 0 5.265624 -4.273438 9.539062 -9.539062 9.539062 h -14.921876 c -5.265624 0 -9.539062 -4.273438 -9.539062 -9.539062 v -88.921876 c 0 -5.265624 4.273438 -9.539062 9.539062 -9.539062 z m 0 0"/>
    </clipPath>
    <clipPath id="m">
        <path d="m 12 92 h 34 v 28 h -34 z m 0 0"/>
    </clipPath>
    <clipPath id="n">
        <path d="m 21.539062 12 h 14.921876 c 5.265624 0 9.539062 4.273438 9.539062 9.539062 v 88.921876 c 0 5.265624 -4.273438 9.539062 -9.539062 9.539062 h -14.921876 c -5.265624 0 -9.539062 -4.273438 -9.539062 -9.539062 v -88.921876 c 0 -5.265624 4.273438 -9.539062 9.539062 -9.539062 z m 0 0"/>
    </clipPath>
    <linearGradient id="o" x1="47" x2="81" xlink:href="#a" y1="122" y2="122"/>
    <linearGradient id="p" x1="82" x2="116" xlink:href="#a" y1="122" y2="122"/>
    <clipPath id="q">
        <path d="m 47 12 h 34 v 108 h -34 z m 0 0"/>
    </clipPath>
    <clipPath id="r">
        <path d="m 56.539062 12 h 14.921876 c 5.265624 0 9.539062 4.273438 9.539062 9.539062 v 88.921876 c 0 5.265624 -4.273438 9.539062 -9.539062 9.539062 h -14.921876 c -5.265624 0 -9.539062 -4.273438 -9.539062 -9.539062 v -88.921876 c 0 -5.265624 4.273438 -9.539062 9.539062 -9.539062 z m 0 0"/>
    </clipPath>
    <clipPath id="s">
        <path d="m 47 12 h 34 v 16 h -34 z m 0 0"/>
    </clipPath>
    <clipPath id="t">
        <path d="m 56.539062 12 h 14.921876 c 5.265624 0 9.539062 4.273438 9.539062 9.539062 v 88.921876 c 0 5.265624 -4.273438 9.539062 -9.539062 9.539062 h -14.921876 c -5.265624 0 -9.539062 -4.273438 -9.539062 -9.539062 v -88.921876 c 0 -5.265624 4.273438 -9.539062 9.539062 -9.539062 z m 0 0"/>
    </clipPath>
    <clipPath id="u">
        <path d="m 47 28 h 34 v 16 h -34 z m 0 0"/>
    </clipPath>
    <clipPath id="v">
        <path d="m 56.539062 12 h 14.921876 c 5.265624 0 9.539062 4.273438 9.539062 9.539062 v 88.921876 c 0 5.265624 -4.273438 9.539062 -9.539062 9.539062 h -14.921876 c -5.265624 0 -9.539062 -4.273438 -9.539062 -9.539062 v -88.921876 c 0 -5.265624 4.273438 -9.539062 9.539062 -9.539062 z m 0 0"/>
    </clipPath>
    <clipPath id="w">
        <path d="m 47 44 h 34 v 16 h -34 z m 0 0"/>
    </clipPath>
    <clipPath id="x">
        <path d="m 56.539062 12 h 14.921876 c 5.265624 0 9.539062 4.273438 9.539062 9.539062 v 88.921876 c 0 5.265624 -4.273438 9.539062 -9.539062 9.539062 h -14.921876 c -5.265624 0 -9.539062 -4.273438 -9.539062 -9.539062 v -88.921876 c 0 -5.265624 4.273438 -9.539062 9.539062 -9.539062 z m 0 0"/>
    </clipPath>
    <clipPath id="y">
        <path d="m 47 60 h 34 v 16 h -34 z m 0 0"/>
    </clipPath>
    <clipPath id="z">
        <path d="m 56.539062 12 h 14.921876 c 5.265624 0 9.539062 4.273438 9.539062 9.539062 v 88.921876 c 0 5.265624 -4.273438 9.539062 -9.539062 9.539062 h -14.921876 c -5.265624 0 -9.539062 -4.273438 -9.539062 -9.539062 v -88.921876 c 0 -5.265624 4.273438 -9.539062 9.539062 -9.539062 z m 0 0"/>
    </clipPath>
    <clipPath id="A">
        <path d="m 47 92 h 34 v 28 h -34 z m 0 0"/>
    </clipPath>
    <clipPath id="B">
        <path d="m 56.539062 12 h 14.921876 c 5.265624 0 9.539062 4.273438 9.539062 9.539062 v 88.921876 c 0 5.265624 -4.273438 9.539062 -9.539062 9.539062 h -14.921876 c -5.265624 0 -9.539062 -4.273438 -9.539062 -9.539062 v -88.921876 c 0 -5.265624 4.273438 -9.539062 9.539062 -9.539062 z m 0 0"/>
    </clipPath>
    <clipPath id="C">
        <path d="m 82 12 h 34 v 108 h -34 z m 0 0"/>
    </clipPath>
    <clipPath id="D">
        <path d="m 91.539062 12 h 14.921876 c 5.265624 0 9.539062 4.273438 9.539062 9.539062 v 88.921876 c 0 5.265624 -4.273438 9.539062 -9.539062 9.539062 h -14.921876 c -5.265624 0 -9.539062 -4.273438 -9.539062 -9.539062 v -88.921876 c 0 -5.265624 4.273438 -9.539062 9.539062 -9.539062 z m 0 0"/>
    </clipPath>
    <clipPath id="E">
        <path d="m 82 12 h 34 v 16 h -34 z m 0 0"/>
    </clipPath>
    <clipPath id="F">
        <path d="m 91.539062 12 h 14.921876 c 5.265624 0 9.539062 4.273438 9.539062 9.539062 v 88.921876 c 0 5.265624 -4.273438 9.539062 -9.539062 9.539062 h -14.921876 c -5.265624 0 -9.539062 -4.273438 -9.539062 -9.539062 v -88.921876 c 0 -5.265624 4.273438 -9.539062 9.539062 -9.539062 z m 0 0"/>
    </clipPath>
    <clipPath id="G">
        <path d="m 82 28 h 34 v 16 h -34 z m 0 0"/>
    </clipPath>
    <clipPath id="H">
        <path d="m 91.539062 12 h 14.921876 c 5.265624 0 9.539062 4.273438 9.539062 9.539062 v 88.921876 c 0 5.265624 -4.273438 9.539062 -9.539062 9.539062 h -14.921876 c -5.265624 0 -9.539062 -4.273438 -9.539062 -9.539062 v -88.921876 c 0 -5.265624 4.273438 -9.539062 9.539062 -9.539062 z m 0 0"/>
    </clipPath>
    <clipPath id="I">
        <path d="m 82 44 h 34 v 16 h -34 z m 0 0"/>
    </clipPath>
    <clipPath id="J">
        <path d="m 91.539062 12 h 14.921876 c 5.265624 0 9.539062 4.273438 9.539062 9.539062 v 88.921876 c 0 5.265624 -4.273438 9.539062 -9.539062 9.539062 h -14.921876 c -5.265624 0 -9.539062 -4.273438 -9.539062 -9.539062 v -88.921876 c 0 -5.265624 4.273438 -9.539062 9.539062 -9.539062 z m 0 0"/>
    </clipPath>
    <clipPath id="K">
        <path d="m 82 60 h 34 v 16 h -34 z m 0 0"/>
    </clipPath>
    <clipPath id="L">
        <path d="m 91.539062 12 h 14.921876 c 5.265624 0 9.539062 4.273438 9.539062 9.539062 v 88.921876 c 0 5.265624 -4.273438 9.539062 -9.539062 9.539062 h -14.921876 c -5.265624 0 -9.539062 -4.273438 -9.539062 -9.539062 v -88.921876 c 0 -5.265624 4.273438 -9.539062 9.539062 -9.539062 z m 0 0"/>
    </clipPath>
    <clipPath id="M">
        <path d="m 82 92 h 34 v 28 h -34 z m 0 0"/>
    </clipPath>
    <clipPath id="N">
        <path d="m 91.539062 12 h 14.921876 c 5.265624 0 9.539062 4.273438 9.539062 9.539062 v 88.921876 c 0 5.265624 -4.273438 9.539062 -9.539062 9.539062 h -14.921876 c -5.265624 0 -9.539062 -4.273438 -9.539062 -9.539062 v -88.921876 c 0 -5.265624 4.273438 -9.539062 9.539062 -9.539062 z m 0 0"/>
    </clipPath>
    <path d="m 21.539062 14 h 14.921876 c 5.265624 0 9.539062 4.273438 9.539062 9.539062 v 88.921876 c 0 5.265624 -4.273438 9.539062 -9.539062 9.539062 h -14.921876 c -5.265624 0 -9.539062 -4.273438 -9.539062 -9.539062 v -88.921876 c 0 -5.265624 4.273438 -9.539062 9.539062 -9.539062 z m 0 0" fill="url(#b)"/>
    <g clip-path="url(#c)">
        <g clip-path="url(#d)">
            <path d="m 12 12 h 34 v 108 h -34 z m 0 0" fill="#1a5fb4"/>
        </g>
    </g>
    <g clip-path="url(#e)">
        <g clip-path="url(#f)">
            <path d="m 12 12 h 34 v 16 h -34 z m 0 0" fill="#99c1f1"/>
        </g>
    </g>
    <g clip-path="url(#g)">
        <g clip-path="url(#h)">
            <path d="m 12 28 h 34 v 16 h -34 z m 0 0" fill="#62a0ea"/>
        </g>
    </g>
    <g clip-path="url(#i)">
        <g clip-path="url(#j)">
            <path d="m 12 44 h 34 v 16 h -34 z m 0 0" fill="#3584e4"/>
        </g>
    </g>
    <g clip-path="url(#k)">
        <g clip-path="url(#l)">
            <path d="m 12 60 h 34 v 16 h -34 z m 0 0" fill="#1c71d8"/>
        </g>
    </g>
    <g clip-path="url(#m)">
        <g clip-path="url(#n)">
            <path d="m 12 92 h 34 v 32 h -34 z m 0 0" fill="#f6f5f4"/>
        </g>
    </g>
    <path d="m 56.539062 14 h 14.921876 c 5.265624 0 9.539062 4.273438 9.539062 9.539062 v 88.921876 c 0 5.265624 -4.273438 9.539062 -9.539062 9.539062 h -14.921876 c -5.265624 0 -9.539062 -4.273438 -9.539062 -9.539062 v -88.921876 c 0 -5.265624 4.273438 -9.539062 9.539062 -9.539062 z m 0 0" fill="url(#o)"/>
    <path d="m 91.539062 14 h 14.921876 c 5.265624 0 9.539062 4.273438 9.539062 9.539062 v 88.921876 c 0 5.265624 -4.273438 9.539062 -9.539062 9.539062 h -14.921876 c -5.265624 0 -9.539062 -4.273438 -9.539062 -9.539062 v -88.921876 c 0 -5.265624 4.273438 -9.539062 9.539062 -9.539062 z m 0 0" fill="url(#p)"/>
    <g clip-path="url(#q)">
        <g clip-path="url(#r)">
            <path d="m 47 12 h 34 v 108 h -34 z m 0 0" fill="#26a269"/>
        </g>
    </g>
    <g clip-path="url(#s)">
        <g clip-path="url(#t)">
            <path d="m 47 12 h 34 v 16 h -34 z m 0 0" fill="#8ff0a4"/>
        </g>
    </g>
    <g clip-path="url(#u)">
        <g clip-path="url(#v)">
            <path d="m 47 28 h 34 v 16 h -34 z m 0 0" fill="#57e389"/>
        </g>
    </g>
    <g clip-path="url(#w)">
        <g clip-path="url(#x)">
            <path d="m 47 44 h 34 v 16 h -34 z m 0 0" fill="#33d17a"/>
        </g>
    </g>
    <g clip-path="url(#y)">
        <g clip-path="url(#z)">
            <path d="m 47 60 h 34 v 16 h -34 z m 0 0" fill="#2ec27e"/>
        </g>
    </g>
    <g clip-path="url(#A)">
        <g clip-path="url(#B)">
            <path d="m 47 92 h 34 v 32 h -34 z m 0 0" fill="#f6f5f4"/>
        </g>
    </g>
    <g clip-path="url(#C)">
        <g clip-path="url(#D)">
            <path d="m 82 12 h 34 v 108 h -34 z m 0 0" fill="#c64600"/>
        </g>
    </g>
    <g clip-path="url(#E)">
        <g clip-path="url(#F)">
            <path d="m 82 12 h 34 v 16 h -34 z m 0 0" fill="#ffbe6f"/>
        </g>
    </g>
    <g clip-path="url(#G)">
        <g clip-path="url(#H)">
            <path d="m 82 28 h 34 v 16 h -34 z m 0 0" fill="#ffa348"/>
        </g>
    </g>
    <g clip-path="url(#I)">
        <g clip-path="url(#J)">
            <path d="m 82 44 h 34 v 16 h -34 z m 0 0" fill="#ff7800"/>
        </g>
    </g>
    <g clip-path="url(#K)">
        <g clip-path="url(#L)">
            <path d="m 82 60 h 34 v 16 h -34 z m 0 0" fill="#e66100"/>
        </g>
    </g>
    <g clip-path="url(#M)">
        <g clip-path="url(#N)">
            <path d="m 82 92 h 34 v 32 h -34 z m 0 0" fill="#f6f5f4"/>
        </g>
    </g>
    <g fill="#9a9996">
        <path d="m 24 102 h 10 c 1.65625 0 3 1.34375 3 3 s -1.34375 3 -3 3 h -10 c -1.65625 0 -3 -1.34375 -3 -3 s 1.34375 -3 3 -3 z m 0 0"/>
        <path d="m 59 102 h 10 c 1.65625 0 3 1.34375 3 3 s -1.34375 3 -3 3 h -10 c -1.65625 0 -3 -1.34375 -3 -3 s 1.34375 -3 3 -3 z m 0 0"/>
        <path d="m 94 102 h 10 c 1.65625 0 3 1.34375 3 3 s -1.34375 3 -3 3 h -10 c -1.65625 0 -3 -1.34375 -3 -3 s 1.34375 -3 3 -3 z m 0 0"/>
    </g>
</svg>
